<?xml version="1.0" encoding="UTF-8" standalone="no"?>
<!-- Created with Inkscape (http://www.inkscape.org/) -->

<svg
   version="1.1"
   id="svg4685"
   xml:space="preserve"
   width="530.66669"
   height="530.66669"
   viewBox="0 0 530.66669 530.66669"
   sodipodi:docname="lemonade-pdv.svg"
   inkscape:version="1.1.2 (b8e25be833, 2022-02-05)"
   xmlns:inkscape="http://www.inkscape.org/namespaces/inkscape"
   xmlns:sodipodi="http://sodipodi.sourceforge.net/DTD/sodipodi-0.dtd"
   xmlns="http://www.w3.org/2000/svg"
   xmlns:svg="http://www.w3.org/2000/svg"><defs
     id="defs4689"><clipPath
       clipPathUnits="userSpaceOnUse"
       id="clipPath4699"><path
         d="M 0,398 H 398 V 0 H 0 Z"
         id="path4697" /></clipPath><clipPath
       clipPathUnits="userSpaceOnUse"
       id="clipPath4811"><path
         d="m 138.932,231.967 h 91.41 V 106.676 h -91.41 z"
         id="path4809" /></clipPath><clipPath
       clipPathUnits="userSpaceOnUse"
       id="clipPath4815"><path
         d="m 138.932,106.676 h 91.41 v 125.292 h -91.41 z"
         id="path4813" /></clipPath></defs><sodipodi:namedview
     id="namedview4687"
     pagecolor="#ffffff"
     bordercolor="#666666"
     borderopacity="1.0"
     inkscape:pageshadow="2"
     inkscape:pageopacity="0.0"
     inkscape:pagecheckerboard="0"
     showgrid="false"
     inkscape:zoom="1.5659547"
     inkscape:cx="265.33334"
     inkscape:cy="265.33334"
     inkscape:window-width="1920"
     inkscape:window-height="1018"
     inkscape:window-x="-8"
     inkscape:window-y="-8"
     inkscape:window-maximized="1"
     inkscape:current-layer="g4691" /><g
     id="g4691"
     inkscape:groupmode="layer"
     inkscape:label="lemonade-pdv"
     transform="matrix(1.3333333,0,0,-1.3333333,0,530.66667)"><g
       id="g4693"><g
         id="g4695"
         clip-path="url(#clipPath4699)"><path
           d="m 127.692,145.879 -0.188,-0.068 c -7.159,-2.604 -19.199,-8.096 -19.32,-8.151 l -0.07,-0.031 -0.074,0.017 c -0.064,0.016 -1.567,0.399 -1.905,1.313 -0.138,0.375 -0.066,0.773 0.215,1.186 0.504,2.378 4.506,21.273 4.727,21.822 0.033,0.082 0.118,0.179 0.338,0.179 1.647,0 13.286,-4.835 16.227,-16.074 z m 0.934,-1.758 c 0.373,-0.025 0.803,-0.371 1.315,-1.057 2.45,-3.271 6.48,-14.177 5.718,-17.675 -0.084,-0.389 -0.41,-0.854 -1.479,-0.854 -5.365,0 -24.963,11.369 -25.795,11.854 l -0.232,0.134 0.178,0.202 c 0.752,0.849 17.739,7.4 20.207,7.4 0.031,0 0.061,-0.002 0.088,-0.004 m 2.885,-31.855 c -2.299,-2.578 -5.099,-3.539 -6.324,-3.539 h -10e-4 c -0.359,0 -0.626,0.074 -0.794,0.222 -1.184,1.035 -15.476,24.67 -16.084,25.676 -0.081,0.133 -0.092,0.25 -0.035,0.352 0.03,0.052 0.107,0.144 0.279,0.144 0.629,0 3.291,-1.406 8.768,-4.332 4.913,-2.625 11.028,-5.891 16.905,-8.674 l 0.11,-0.052 0.014,-0.122 c 0.548,-4.75 -1.241,-7.882 -2.838,-9.675 m -8.301,-4.442 c -2.297,-0.724 -4.681,-1.09 -7.083,-1.09 v 0 c -6.485,0 -11.375,2.651 -11.793,3.817 -0.343,0.961 0.448,10.053 1.288,19.281 0.198,2.176 0.354,3.895 0.385,4.416 0.037,0.641 0.406,0.711 0.563,0.711 0.762,0 2.083,-1.645 2.18,-2.227 0.097,-0.32 2.246,-3.828 4.52,-7.541 3.614,-5.898 8.563,-13.978 10.072,-17.062 l 0.113,-0.229 z m -22.434,2.582 c -0.803,0 -1.714,0.252 -2.564,0.711 -0.483,0.26 -11.852,6.434 -15.94,13.041 l -0.099,0.162 c -0.949,1.53 -1.471,2.373 -0.24,3.211 0.9,0.373 2.341,0.979 4.08,1.711 8.124,3.418 16.151,6.756 17.295,6.756 0.041,0 0.076,-0.004 0.105,-0.01 1.348,-0.269 1.348,-1.761 1.348,-2.853 0,-1.344 -1.563,-19.274 -1.759,-20.971 -0.129,-1.117 -0.94,-1.758 -2.226,-1.758 m -28.238,36.533 c 0.057,0.157 1.13,2.696 2.874,2.528 0.878,-0.078 7.851,-2.934 13.959,-5.553 8.5,-3.644 12.866,-5.715 12.978,-6.152 l 0.038,-0.151 -0.141,-0.117 c -0.368,-0.244 -4.711,-2.019 -10.806,-4.5 -3.5,-1.424 -6.805,-2.769 -7.234,-2.984 -0.566,-0.283 -1.638,-0.612 -2.794,-0.612 -1.186,0 -2.228,0.348 -3.013,1.006 -1.915,1.61 -6.445,12.881 -5.861,16.535 m 10.603,21.182 0.054,0.008 0.052,-0.02 c 2.806,-1.08 19.699,-25.953 20.007,-27.345 0.08,-0.358 0.1,-0.598 -0.037,-0.768 -0.085,-0.107 -0.216,-0.16 -0.389,-0.16 -0.303,0 -0.788,0.156 -1.668,0.441 l -0.714,0.231 c -0.265,0.084 -26.769,10.736 -26.848,11.84 -0.403,5.595 3.801,15.086 9.543,15.773 m 4.247,0.645 c 0.429,0.824 4.073,0.865 4.799,0.865 6.602,0 14.785,-1.918 16.119,-7.328 l 0.008,-0.033 -0.002,-0.036 c -0.978,-13.482 -2.659,-21.88 -2.676,-21.963 l -0.109,-0.539 -0.292,0.465 c -0.168,0.268 -16.747,26.617 -17.811,28.133 -0.096,0.137 -0.109,0.295 -0.036,0.436 m 3.543,2.953 c -6.242,0 -11.525,-1.99 -15.28,-5.756 -4.971,-4.986 -6.786,-12.567 -5.108,-21.346 1.707,-8.928 6.804,-17.988 14.352,-25.515 9.334,-9.305 21.15,-14.862 31.608,-14.862 6.241,0 11.524,1.99 15.279,5.754 10.378,10.41 6.231,31.432 -9.244,46.86 -9.334,9.308 -21.149,14.865 -31.607,14.865"
           style="fill:#ffffff;fill-opacity:1;fill-rule:nonzero;stroke:none"
           id="path4701" /><path
           d="m 312.863,132.33 c -1.15,-0.967 -2.681,-1.478 -4.422,-1.478 -1.699,0 -3.275,0.484 -4.105,0.9 -0.631,0.316 -5.506,2.301 -10.666,4.4 -8.928,3.633 -15.291,6.233 -15.83,6.592 l -0.19,0.127 0.039,0.266 c 0.165,0.644 6.577,3.683 19.059,9.037 8.971,3.846 19.213,8.039 20.504,8.156 2.572,0.246 4.137,-3.486 4.201,-3.641 l 0.02,-0.07 c 0.859,-5.371 -5.795,-21.924 -8.61,-24.289 m -5.543,-8.935 -0.146,-0.237 c -6,-9.701 -22.701,-18.773 -23.408,-19.154 -1.25,-0.674 -2.586,-1.045 -3.766,-1.045 -1.889,0 -3.08,0.941 -3.27,2.582 -0.289,2.498 -2.584,28.836 -2.584,30.803 0,1.599 0,3.793 1.981,4.189 0.043,0.008 0.094,0.014 0.152,0.014 1.682,0 13.473,-4.902 25.407,-9.924 2.552,-1.074 4.668,-1.965 5.929,-2.478 l 0.061,-0.034 c 1.806,-1.23 1.039,-2.468 -0.356,-4.716 m -32.549,-20.221 c -0.613,-1.713 -7.792,-5.61 -17.318,-5.61 -3.527,0 -7.029,0.54 -10.404,1.602 l -0.358,0.113 0.164,0.336 c 2.217,4.531 9.491,16.403 14.799,25.071 3.338,5.447 6.491,10.593 6.637,11.08 0.139,0.838 2.078,3.254 3.199,3.254 0.231,0 0.772,-0.102 0.826,-1.043 0.045,-0.768 0.276,-3.297 0.569,-6.502 1.23,-13.547 2.392,-26.891 1.886,-28.301 m -29.457,-2.356 c -0.246,-0.216 -0.638,-0.326 -1.166,-0.326 -1.8,0 -5.916,1.412 -9.293,5.201 -2.345,2.633 -4.97,7.235 -4.165,14.209 l 0.021,0.178 0.162,0.078 c 8.637,4.088 17.621,8.887 24.84,12.744 8.037,4.293 11.943,6.358 12.863,6.358 0.254,0 0.367,-0.133 0.412,-0.213 0.082,-0.149 0.067,-0.322 -0.052,-0.516 -0.893,-1.478 -21.883,-36.191 -23.622,-37.713 m -16.55,24.184 c -1.119,5.135 4.799,21.133 8.398,25.939 0.752,1.006 1.385,1.506 1.934,1.545 0.039,0.004 0.082,0 0.129,0 3.627,0 28.576,-9.623 29.677,-10.871 l 0.26,-0.295 -0.34,-0.164 c -1.22,-0.711 -30.002,-17.373 -37.883,-17.373 h -0.001 c -1.57,0 -2.048,0.647 -2.174,1.219 m 11.787,30.373 c 5.359,14.314 22.763,23.533 24.834,23.533 0.299,0 0.4,-0.178 0.429,-0.252 0.327,-0.808 5.364,-28.511 6.002,-32.023 0.409,-0.604 0.514,-1.188 0.311,-1.738 -0.496,-1.34 -2.703,-1.903 -2.797,-1.926 l -0.109,-0.028 -0.104,0.047 c -0.176,0.08 -17.859,8.147 -28.373,11.971 l -0.306,0.111 z m 28.388,23.807 c 1.959,7.943 13.979,10.763 23.676,10.763 1.067,0 6.418,-0.062 7.047,-1.269 0.108,-0.207 0.088,-0.44 -0.053,-0.641 -1.562,-2.226 -25.914,-40.93 -26.158,-41.32 l -0.43,-0.682 -0.16,0.789 c -0.025,0.123 -2.494,12.457 -3.931,32.258 l -0.004,0.051 z m 36.807,8.527 0.074,0.029 0.078,-0.009 c 8.434,-1.014 14.61,-14.954 14.018,-23.17 -0.023,-0.319 -0.066,-0.909 -18.496,-8.799 -9.344,-4 -19.127,-8.014 -20.936,-8.59 l -1.054,-0.34 c -1.289,-0.418 -2,-0.648 -2.444,-0.648 -0.256,0 -0.447,0.08 -0.572,0.236 -0.201,0.25 -0.172,0.603 -0.055,1.129 0.455,2.043 25.27,38.578 29.387,40.162 m 11.154,-3.15 c -5.513,5.529 -13.273,8.453 -22.439,8.453 -15.361,0 -32.715,-8.162 -46.424,-21.832 -22.729,-22.66 -28.819,-53.535 -13.578,-68.825 5.514,-5.529 13.275,-8.451 22.441,-8.451 15.36,0 32.715,8.159 46.424,21.828 22.729,22.663 28.821,53.538 13.576,68.827"
           style="fill:#ffffff;fill-opacity:1;fill-rule:nonzero;stroke:none"
           id="path4703" /><path
           d="m 138.733,257.286 c 0,-1.76 3.269,-3.602 9.022,-5.155 l -2.793,9.471 c -4.009,-1.355 -6.229,-2.864 -6.229,-4.316"
           style="fill:#ffffff;fill-opacity:1;fill-rule:nonzero;stroke:none"
           id="path4705" /><path
           d="m 204.977,265.25 c -6.008,0.613 -12.855,0.98 -20.349,0.98 -12.514,0 -23.267,-1.011 -31.216,-2.514 l 3.87,-13.285 c 1.889,-0.393 3.637,-0.729 4.8,-0.877 6.507,-0.757 14.128,-1.214 22.546,-1.214 8.385,0 15.979,0.454 22.472,1.205 -2.881,6.096 -2.549,12.533 -2.123,15.705"
           style="fill:#ffffff;fill-opacity:1;fill-rule:nonzero;stroke:none"
           id="path4707" /><path
           d="m 214.51,279.568 c 2.584,4.772 10.155,9.494 11.96,9.494 0.442,0 0.634,-0.26 0.667,-0.503 0.198,-1.498 5.189,-26.677 5.24,-26.931 l 0.174,-0.882 -0.766,0.471 c -0.07,0.045 -7.233,4.49 -17.351,12.51 l -0.084,0.093 c -1.071,1.641 -1.018,3.575 0.16,5.748 m 15.555,9.975 0.058,0.082 0.089,0.044 c 1.437,0.715 3.351,1.094 5.532,1.094 4.977,0 10.387,-1.895 12.863,-4.507 0.266,-0.28 0.518,-0.546 -5.595,-10.828 -2.803,-4.716 -6.305,-10.392 -7.073,-11.342 l -0.412,-0.513 c -0.759,-0.952 -1.045,-1.309 -1.473,-1.309 h -0.001 c -0.355,0 -0.578,0.281 -0.76,0.545 -0.799,1.16 -4.842,24.435 -3.228,26.734 m 19.605,-6.652 c 0.361,0.281 0.861,0.389 1.484,0.389 1.172,0 2.395,-0.515 2.446,-0.536 3.039,-2.031 7.222,-11.526 6.804,-13.537 -0.392,-1.889 -2.881,-3.006 -4.357,-3.263 -0.496,-0.086 -4.084,-0.805 -7.885,-1.712 -3.693,-0.882 -6.791,-1.586 -8.875,-2.033 -1.56,-0.362 -2.644,-0.528 -2.838,-0.542 -0.029,-0.002 -0.037,0.151 -0.031,0.151 h -0.117 l -0.078,-0.055 c -0.356,1.039 12.455,20.366 13.447,21.138 m 12.115,-19.416 0.033,-0.154 c 1.325,-6.36 -3.519,-16.196 -3.726,-16.611 -0.709,-1.423 -2.029,-2.38 -3.283,-2.38 -0.532,0 -1.03,0.166 -1.477,0.492 -1.334,0.973 -15.004,11.508 -15.934,12.357 -0.683,0.625 -1.298,1.242 -1.308,1.929 -0.006,0.336 0.133,0.642 0.41,0.912 0.547,0.53 6.703,2.012 18.629,4.738 1.902,0.434 3.476,0.794 4.406,1.016 l 0.067,0.01 c 1.703,0.112 1.878,-0.833 2.183,-2.309 m -8.611,-21.735 c -1.078,-2.52 -5.016,-7.443 -12.938,-9.907 l -0.189,-0.058 -0.065,0.187 c -0.929,2.729 -2.502,10.073 -3.763,15.974 -0.75,3.501 -1.457,6.808 -1.61,7.085 -0.277,0.355 -0.362,1.639 -0.056,2.263 0.166,0.341 0.402,0.413 0.568,0.413 0.176,0 0.365,-0.082 0.565,-0.243 0.384,-0.315 1.705,-1.324 3.375,-2.601 7.052,-5.395 13.97,-10.728 14.363,-11.515 0.191,-0.387 -0.029,-1.083 -0.25,-1.598 m -42.045,10.559 c 0.6,0.515 15.4,4.811 19.332,4.811 h 0.013 c 0.028,0 0.047,0.147 0.047,0.265 0,0.23 -0.06,0.417 -0.17,0.649 -3.546,-0.735 -13.634,-2.888 -19.783,-4.557 l -0.281,-0.089 -0.154,0.24 c -2.742,4.352 -2.576,8.742 -1.721,12.041 0.492,1.898 1.213,3.509 1.741,4.466 0.15,0.27 1.478,2.842 2.209,2.842 h 0.079 l 0.096,-0.239 c 0.561,-0.235 16.75,-10.164 18.876,-11.454 0.617,-0.144 0.999,-0.489 1.138,-0.926 0.262,-0.824 -0.537,-1.774 -0.688,-1.941 0.104,-0.254 0.172,-0.518 0.204,-0.782 0.004,-0.005 0.009,-0.011 0.013,-0.015 0.012,-0.001 0.031,0 0.041,-0.001 0,0 -0.006,-0.015 -0.015,-0.033 0.191,-0.224 0.322,-0.499 0.363,-0.804 0.021,-0.162 0.039,-0.326 0.062,-0.489 0.361,0.53 0.565,0.656 0.78,0.656 0.173,0 0.4,-0.107 0.466,-0.41 0.864,-3.886 5.155,-23.34 4.926,-24.605 -0.15,-0.823 -2.144,-1.561 -4.58,-1.791 -0.004,-0.422 -0.008,-0.844 -0.016,-1.265 14.752,0.106 27.516,13.179 29.1,29.855 0.873,9.188 -1.787,18.221 -7.295,24.782 -4.664,5.554 -11.016,8.914 -17.887,9.461 -0.668,0.053 -1.345,0.079 -2.011,0.079 -14.043,0 -26.315,-11.763 -28.928,-27.229 -0.004,0 -0.009,0 -0.014,0.001 -0.099,-0.62 -0.218,-1.515 -0.295,-2.601 -0.201,-2.862 -0.097,-7.07 1.439,-11.212 0.274,-0.739 0.595,-1.475 0.967,-2.203 0.701,0.091 1.383,0.225 2.055,0.323 -0.423,1.104 -0.464,1.873 -0.109,2.175"
           style="fill:#ffffff;fill-opacity:1;fill-rule:nonzero;stroke:none"
           id="path4709" /><path
           d="m 182.83,165.063 c -0.567,1.298 -1.194,2.638 -1.786,3.798 l 1.399,-4.8 c 0.111,0.312 0.242,0.65 0.387,1.002"
           style="fill:#ffffff;fill-opacity:1;fill-rule:nonzero;stroke:none"
           id="path4711" /><path
           d="m 170.887,158.811 c -2.221,-1.493 -5.578,-3.748 -5.693,-4.487 l -0.178,0.018 c 0.447,-0.188 1.009,-0.461 1.657,-0.776 l 0.08,0.036 c 1.868,-0.913 4.689,-2.213 6.324,-2.213 h 0.001 c 0.072,0 0.142,-0.075 0.21,-0.067 0.9,0.076 2.258,0.705 3.727,1.633 l -2.487,8.41 c -0.906,-0.676 -2.095,-1.515 -3.641,-2.554"
           style="fill:#ffffff;fill-opacity:1;fill-rule:nonzero;stroke:none"
           id="path4713" /><path
           d="m 174.055,162.953 -3.407,11.551 c -0.609,1.092 -1.169,2.008 -1.597,2.576 -0.121,0.162 -0.232,0.295 -0.33,0.397 -3.784,-1.913 -11,-7.028 -10.831,-8.264 l 0.068,-0.19 c 2.563,-7.293 4.56,-11.888 5.967,-13.74 0.192,0.319 0.48,0.655 0.879,1.026 0.998,0.935 2.675,2.101 5.208,3.804 1.118,0.752 2.839,1.908 4.043,2.84"
           style="fill:#ffffff;fill-opacity:1;fill-rule:nonzero;stroke:none"
           id="path4715" /><path
           d="m 197.206,157.527 c -0.026,-0.002 -0.048,-0.004 -0.075,-0.004 -1.281,0 -3.392,0.567 -6.887,1.586 -2.225,0.651 -5.464,1.592 -6.621,1.563 0.116,-0.426 0.239,-0.92 0.376,-1.473 0.512,-2.086 1.288,-5.236 2.327,-6.285 1.69,-1.705 9.729,-3.426 12.633,-3.426 0.057,0 0.095,0.004 0.142,0.004 -0.099,0.656 -0.401,1.717 -0.676,2.684 -0.455,1.597 -1.002,3.529 -1.219,5.351"
           style="fill:#ffffff;fill-opacity:1;fill-rule:nonzero;stroke:none"
           id="path4717" /><path
           d="m 198.718,158.209 c 0.145,-1.822 0.733,-3.908 1.216,-5.604 0.209,-0.736 0.382,-1.355 0.512,-1.886 1.62,2.631 4.501,8.732 4.827,10.551 0.352,1.96 0.215,7.451 -0.66,9.837 -1.156,-3.664 -4.381,-11.005 -5.895,-12.898"
           style="fill:#ffffff;fill-opacity:1;fill-rule:nonzero;stroke:none"
           id="path4719" /><path
           d="m 190.684,160.615 c 2.391,-0.697 5.989,-1.742 6.753,-1.502 1.092,1.028 5.236,10.414 5.936,13.315 -2.691,1.209 -8.738,3.027 -11.81,3.273 -1.059,-1.972 -2.082,-3.558 -2.695,-3.869 -0.224,-0.113 -0.525,-0.176 -0.94,-0.197 -3.071,-5.434 -4.141,-8.106 -4.424,-9.412 1.303,0.05 3.5,-0.534 7.18,-1.608"
           style="fill:#ffffff;fill-opacity:1;fill-rule:nonzero;stroke:none"
           id="path4721" /><path
           d="m 178.895,199.369 -0.05,-0.083 c -1.961,-3.288 -3.374,-5.833 -4.388,-7.807 l 1.836,-6.305 c 0.875,-0.236 1.87,-0.52 3.014,-0.854 2.389,-0.697 5.985,-1.744 6.751,-1.502 1.094,1.028 5.236,10.412 5.937,13.315 -2.893,1.299 -9.659,3.302 -12.443,3.302 -0.39,0 -0.579,-0.042 -0.657,-0.066"
           style="fill:#ffffff;fill-opacity:1;fill-rule:nonzero;stroke:none"
           id="path4723" /><path
           d="m 187.339,181.914 c 0.146,-1.822 0.734,-3.906 1.216,-5.601 0.21,-0.737 0.384,-1.358 0.513,-1.889 1.62,2.631 4.5,8.732 4.827,10.551 0.352,1.961 0.213,7.447 -0.66,9.836 -1.158,-3.663 -4.38,-11.004 -5.896,-12.897"
           style="fill:#ffffff;fill-opacity:1;fill-rule:nonzero;stroke:none"
           id="path4725" /><path
           d="m 187.582,173.193 c 0.056,0 0.094,0.002 0.14,0.004 -0.098,0.657 -0.4,1.719 -0.676,2.686 -0.455,1.597 -1.001,3.527 -1.218,5.347 -0.026,0 -0.048,-0.003 -0.076,-0.003 -1.28,0 -3.392,0.568 -6.885,1.587 -0.628,0.184 -1.338,0.391 -2.06,0.592 l 2.549,-8.75 c 2.946,-0.853 6.497,-1.463 8.226,-1.463 z"
           style="fill:#ffffff;fill-opacity:1;fill-rule:nonzero;stroke:none"
           id="path4727" /><path
           d="m 126.925,328.074 4.28,4.98 -0.017,0.056 -3.611,0.459 -0.89,-5.464 z"
           style="fill:#ffffff;fill-opacity:1;fill-rule:nonzero;stroke:none"
           id="path4729" /><path
           d="m 127.697,326.958 4.86,1.455 -1.09,3.742 -3.948,-4.593 z"
           style="fill:#ffffff;fill-opacity:1;fill-rule:nonzero;stroke:none"
           id="path4731" /><path
           d="m 126.798,333.668 -69.503,8.839 1.241,-5.396 67.373,-8.902 z"
           style="fill:#ffffff;fill-opacity:1;fill-rule:nonzero;stroke:none"
           id="path4733" /><path
           d="m 150.539,249.502 31.73,-107.592 4.592,0.096 -30.978,106.336 c -1.822,0.38 -3.71,0.796 -5.344,1.16"
           style="fill:#ffffff;fill-opacity:1;fill-rule:nonzero;stroke:none"
           id="path4735" /><path
           d="m 132.776,327.66 -4.858,-1.455 21.86,-74.122 c 0.12,-0.027 0.238,-0.052 0.363,-0.081 1.396,-0.31 3.186,-0.717 5,-1.112 z"
           style="fill:#ffffff;fill-opacity:1;fill-rule:nonzero;stroke:none"
           id="path4737" /><path
           d="m 60.338,123.344 c 2.797,-20.838 3.047,-21.535 4.076,-22.166 0.264,-0.16 0.592,-0.362 0.988,-0.707 1.142,-1 4.901,-1.563 7.921,-2.016 2.486,-0.373 4.834,-0.725 6.281,-1.316 3.849,-1.575 27.047,-6.26 41.926,1.283 4.878,2.473 8.112,5.693 10.246,8.693 -4.009,-3.285 -9.244,-5.011 -15.273,-5.011 -11.011,0 -23.392,5.789 -33.116,15.486 -7.849,7.826 -13.156,17.281 -14.942,26.627 -0.924,4.828 -0.849,9.332 0.164,13.322 -4.988,-7.437 -10.278,-19.232 -8.271,-34.195"
           style="fill:#fbb03b;fill-opacity:1;fill-rule:nonzero;stroke:none"
           id="path4739" /><path
           d="m 78.682,130.74 c 0.714,-0.599 1.633,-0.904 2.729,-0.904 1.081,0 2.075,0.307 2.599,0.568 0.445,0.221 3.605,1.508 7.264,2.996 4.192,1.707 9.314,3.791 10.495,4.342 -2.325,1.522 -24.738,11.139 -26.396,11.287 -0.041,0.006 -0.081,0.006 -0.119,0.006 -1.367,0 -2.287,-2.191 -2.296,-2.213 -0.546,-3.453 3.95,-14.59 5.724,-16.082"
           style="fill:#fbb03b;fill-opacity:1;fill-rule:nonzero;stroke:none"
           id="path4741" /><path
           d="m 102.565,112.215 c 0.186,1.613 1.756,19.654 1.756,20.92 0,1.441 -0.158,2.256 -0.994,2.422 h -0.001 c -1.171,0 -11.56,-4.371 -17.142,-6.721 -1.742,-0.732 -3.184,-1.34 -4.044,-1.69 -0.81,-0.558 -0.604,-0.964 0.406,-2.593 l 0.1,-0.162 c 4.027,-6.51 15.296,-12.629 15.773,-12.887 0.778,-0.418 1.636,-0.658 2.357,-0.658 0.609,0 1.653,0.177 1.789,1.369"
           style="fill:#fbb03b;fill-opacity:1;fill-rule:nonzero;stroke:none"
           id="path4743" /><path
           d="m 74.032,152.434 c 1.117,-1.057 24.112,-10.733 26.548,-11.508 l 0.715,-0.231 c 0.783,-0.254 1.299,-0.42 1.533,-0.42 0.045,0 0.06,0.006 0.06,0.006 -0.009,0.004 0.005,0.084 -0.063,0.387 -0.418,1.496 -16.854,25.713 -19.689,27.01 -5.369,-0.707 -9.451,-9.946 -9.104,-15.244"
           style="fill:#fbb03b;fill-opacity:1;fill-rule:nonzero;stroke:none"
           id="path4745" /><path
           d="m 112.896,124.963 c -3.287,5.363 -4.532,7.416 -4.579,7.697 -0.074,0.44 -1.261,1.858 -1.748,1.858 -0.088,0 -0.116,-0.161 -0.124,-0.295 -0.031,-0.53 -0.179,-2.164 -0.386,-4.43 -0.536,-5.889 -1.651,-18.145 -1.31,-19.094 0.304,-0.849 4.962,-3.525 11.377,-3.525 2.272,0 4.527,0.334 6.707,0.992 -1.623,3.223 -6.415,11.047 -9.937,16.797"
           style="fill:#fbb03b;fill-opacity:1;fill-rule:nonzero;stroke:none"
           id="path4747" /><path
           d="m 105.31,140.904 c 0.381,2.063 1.726,9.838 2.561,21.326 -1.391,5.495 -10.506,6.961 -15.684,6.961 -2.904,0 -4.304,-0.408 -4.409,-0.628 1.01,-1.413 15.21,-23.969 17.532,-27.659"
           style="fill:#fbb03b;fill-opacity:1;fill-rule:nonzero;stroke:none"
           id="path4749" /><path
           d="m 127.165,146.154 c -2.911,10.67 -14.138,15.463 -15.709,15.553 -0.374,-1.41 -3.48,-16.002 -4.685,-21.697 l -0.036,-0.084 c -0.217,-0.301 -0.278,-0.569 -0.188,-0.815 0.202,-0.545 1.11,-0.902 1.527,-1.019 1.004,0.459 12.187,5.535 19.091,8.062"
           style="fill:#fbb03b;fill-opacity:1;fill-rule:nonzero;stroke:none"
           id="path4751" /><path
           d="m 128.595,143.684 -0.057,0.002 c -2.112,0 -17.435,-5.817 -19.638,-7.086 2.516,-1.448 20.381,-11.625 25.28,-11.625 0.939,0 1.023,0.382 1.05,0.507 0.744,3.411 -3.23,14.1 -5.641,17.321 -0.578,0.771 -0.888,0.873 -0.994,0.881"
           style="fill:#fbb03b;fill-opacity:1;fill-rule:nonzero;stroke:none"
           id="path4753" /><path
           d="m 133.926,121.771 c -5.853,2.776 -11.927,6.02 -16.813,8.629 -3.849,2.057 -7.227,3.862 -8.286,4.217 5.19,-8.584 14.956,-24.553 15.855,-25.338 0.038,-0.035 0.165,-0.113 0.504,-0.113 h 10e-4 c 1.234,0 3.91,1.053 5.996,3.393 1.525,1.709 3.229,4.691 2.743,9.212"
           style="fill:#fbb03b;fill-opacity:1;fill-rule:nonzero;stroke:none"
           id="path4755" /><path
           d="M 305.539,113.51 C 291.256,99.27 273.072,90.766 256.9,90.766 c -8.857,0 -16.546,2.537 -22.435,7.363 3.135,-4.406 7.885,-9.139 15.053,-12.774 21.853,-11.076 55.923,-4.193 61.578,-1.882 2.125,0.869 5.572,1.384 9.224,1.933 4.436,0.664 9.955,1.49 11.633,2.959 0.582,0.508 1.065,0.803 1.451,1.041 1.514,0.924 1.881,1.948 5.989,32.557 2.711,20.209 -3.713,36.308 -9.579,46.256 -0.894,1.515 -1.802,2.937 -2.705,4.263 4.536,-17.416 -3.336,-40.793 -21.57,-58.972"
           style="fill:#fbb03b;fill-opacity:1;fill-rule:nonzero;stroke:none"
           id="path4757" /><path
           d="m 320.842,156.479 c -0.154,0.353 -1.541,3.39 -3.531,3.209 -2.44,-0.223 -35.356,-14.348 -38.77,-16.581 1.732,-0.806 9.232,-3.859 15.371,-6.357 5.399,-2.197 10.059,-4.094 10.713,-4.42 0.768,-0.385 2.229,-0.832 3.816,-0.832 1.61,0 2.957,0.445 4.008,1.326 2.6,2.184 9.176,18.467 8.393,23.655"
           style="fill:#fbb03b;fill-opacity:1;fill-rule:nonzero;stroke:none"
           id="path4759" /><path
           d="m 307.34,127.561 c -1.268,0.515 -3.369,1.4 -5.904,2.466 -8.202,3.452 -23.465,9.873 -25.157,9.873 -1.254,-0.246 -1.488,-1.441 -1.488,-3.556 0,-1.731 2.201,-27.459 2.58,-30.729 0.201,-1.748 1.734,-2.01 2.629,-2.01 1.059,0 2.318,0.352 3.459,0.965 0.703,0.379 17.256,9.371 23.168,18.928 l 0.146,0.236 c 1.473,2.377 1.784,2.985 0.567,3.827"
           style="fill:#fbb03b;fill-opacity:1;fill-rule:nonzero;stroke:none"
           id="path4761" /><path
           d="m 290.139,167.275 c -6.846,-9.755 -12.946,-19.216 -13.151,-19.943 -0.086,-0.385 -0.082,-0.055 -0.07,-0.643 h 0.008 c 0.012,0 0.031,0.069 0.06,0.069 0.342,0 1.1,0.281 2.244,0.652 l 1.057,0.358 c 3.58,1.138 37.352,15.357 38.992,16.91 0.51,7.779 -5.484,21.357 -13.373,22.394 -1.765,-0.812 -7.494,-8.004 -15.767,-19.797"
           style="fill:#fbb03b;fill-opacity:1;fill-rule:nonzero;stroke:none"
           id="path4763" /><path
           d="m 271.672,137.938 c -0.012,0.199 -0.053,0.435 -0.182,0.435 -0.715,0 -2.459,-2.084 -2.566,-2.728 -0.069,-0.415 -1.897,-3.428 -6.719,-11.297 -5.174,-8.448 -12.217,-19.944 -14.601,-24.678 3.201,-0.969 6.511,-1.459 9.849,-1.459 9.424,0 16.264,3.932 16.711,5.18 0.5,1.394 -1.137,19.38 -1.924,28.025 -0.302,3.336 -0.521,5.746 -0.568,6.522"
           style="fill:#fbb03b;fill-opacity:1;fill-rule:nonzero;stroke:none"
           id="path4765" /><path
           d="m 273.342,147.754 c 3.408,5.418 24.265,38.551 25.738,40.652 -0.144,0.293 -2.201,0.893 -6.465,0.893 -7.603,0 -20.994,-2.154 -23.037,-10.223 1.227,-16.873 3.201,-28.295 3.764,-31.322"
           style="fill:#fbb03b;fill-opacity:1;fill-rule:nonzero;stroke:none"
           id="path4767" /><path
           d="m 269.281,143.623 c 0.612,0.174 1.946,0.699 2.24,1.496 0.133,0.361 0.043,0.754 -0.273,1.199 l -0.041,0.059 -0.014,0.07 c -1.509,8.311 -5.396,29.563 -5.931,31.801 -2.106,-0.394 -18.547,-8.762 -23.991,-22.795 10.143,-3.717 26.536,-11.158 28.01,-11.83"
           style="fill:#fbb03b;fill-opacity:1;fill-rule:nonzero;stroke:none"
           id="path4769" /><path
           d="m 237.678,150.537 c -3.539,-4.728 -9.374,-20.428 -8.282,-25.433 0.04,-0.186 0.163,-0.747 1.542,-0.747 7.195,-0.002 33.437,14.948 37.128,17.073 -3.232,1.865 -25.74,10.406 -28.841,10.406 -0.032,0 -0.059,0 -0.084,-0.002 -0.157,-0.012 -0.612,-0.16 -1.463,-1.297"
           style="fill:#fbb03b;fill-opacity:1;fill-rule:nonzero;stroke:none"
           id="path4771" /><path
           d="m 268.176,138.52 c -1.559,-0.526 -6.516,-3.172 -12.16,-6.188 -7.18,-3.834 -16.104,-8.602 -24.704,-12.682 -0.714,-6.638 1.789,-11.015 4.026,-13.527 3.064,-3.439 6.996,-4.986 8.81,-4.986 0.498,0 0.684,0.117 0.741,0.166 1.32,1.154 15.685,24.644 23.287,37.217"
           style="fill:#fbb03b;fill-opacity:1;fill-rule:nonzero;stroke:none"
           id="path4773" /><path
           d="m 236.674,261.825 c 1.269,0.245 6.842,1.576 11.394,2.662 3.971,0.948 7.401,1.766 7.909,1.854 0.919,0.16 3.634,1.044 4.029,2.939 0.383,1.846 -3.731,11.166 -6.596,13.089 v -0.001 c -0.01,0 -1.181,0.468 -2.256,0.468 -0.531,0 -0.945,-0.113 -1.234,-0.336 -1.137,-0.885 -12.344,-18.426 -13.246,-20.675"
           style="fill:#fbb03b;fill-opacity:1;fill-rule:nonzero;stroke:none"
           id="path4775" /><path
           d="m 236.447,261.808 h -0.029 c -0.006,0 0.002,-0.153 0.031,-0.151 0.194,0.014 1.278,0.292 2.838,0.653 -1.617,-0.347 -2.623,-0.502 -2.822,-0.502 z"
           style="fill:#fbb03b;fill-opacity:1;fill-rule:nonzero;stroke:none"
           id="path4777" /><path
           d="m 259.865,265.008 c -0.056,0 -0.117,-0.002 -0.179,-0.006 -0.938,-0.222 -2.5,-0.58 -4.381,-1.009 -5.674,-1.297 -17.483,-3.995 -18.276,-4.55 -0.14,-0.139 -0.156,-0.251 -0.156,-0.322 0.008,-0.406 0.662,-1.004 1.053,-1.363 0.773,-0.704 14.213,-11.093 15.869,-12.301 0.31,-0.228 0.652,-0.343 1.014,-0.343 0.949,0 2.009,0.801 2.58,1.946 0.203,0.405 4.929,10.005 3.66,16.101 l -0.031,0.155 c -0.307,1.479 -0.401,1.692 -1.153,1.692"
           style="fill:#fbb03b;fill-opacity:1;fill-rule:nonzero;stroke:none"
           id="path4779" /><path
           d="m 234.914,264.062 0.416,0.518 c 1.494,1.851 11.943,19.272 12.586,21.263 -2.396,2.405 -7.473,4.135 -12.172,4.135 -2.01,0 -3.764,-0.332 -5.082,-0.962 -1.238,-2.411 2.699,-24.587 3.289,-25.783 0.053,-0.076 0.093,-0.123 0.119,-0.153 0.164,0.129 0.494,0.545 0.844,0.982"
           style="fill:#fbb03b;fill-opacity:1;fill-rule:nonzero;stroke:none"
           id="path4781" /><path
           d="m 253.059,243.157 c -0.383,0.768 -9.746,7.929 -14.246,11.372 -1.739,1.329 -2.995,2.291 -3.385,2.608 -0.119,0.098 -0.229,0.152 -0.307,0.152 -0.027,0 -0.111,0 -0.203,-0.185 -0.244,-0.502 -0.166,-1.603 0.021,-1.843 0.163,-0.21 0.567,-2.046 1.678,-7.239 1.166,-5.456 2.756,-12.882 3.69,-15.739 7.652,2.438 11.449,7.181 12.492,9.617 0.322,0.756 0.314,1.145 0.26,1.257"
           style="fill:#fbb03b;fill-opacity:1;fill-rule:nonzero;stroke:none"
           id="path4783" /><path
           d="m 215.199,279.194 c -1.015,-1.876 -1.092,-3.522 -0.226,-4.893 8.147,-6.455 14.359,-10.574 16.457,-11.926 -0.883,4.454 -4.637,23.434 -5.043,25.893 -1.66,-0.213 -8.772,-4.611 -11.188,-9.074"
           style="fill:#fbb03b;fill-opacity:1;fill-rule:nonzero;stroke:none"
           id="path4785" /><path
           d="m 232.08,257.607 c 0.01,-0.01 0.018,-0.022 0.026,-0.032 0.009,0.019 0.015,0.032 0.015,0.032 -0.01,10e-4 -0.029,0 -0.041,0"
           style="fill:#fbb03b;fill-opacity:1;fill-rule:nonzero;stroke:none"
           id="path4787" /><path
           d="m 237.938,232.086 c 0.117,0.955 -2.76,14.487 -4.801,23.706 -0.125,-0.193 -0.276,-0.446 -0.447,-0.749 0.956,-7.514 1.446,-15.266 1.446,-23.076 0,-0.349 -0.005,-0.697 -0.007,-1.046 2.219,0.223 3.66,0.869 3.809,1.165"
           style="fill:#fbb03b;fill-opacity:1;fill-rule:nonzero;stroke:none"
           id="path4789" /><path
           d="m 161.139,247.358 c -0.003,0.001 -0.008,0.001 -0.011,0.001 v 0.001 c -0.877,0.13 -1.949,0.324 -3.111,0.551 l 3.103,-10.654 c 7.091,0.645 15.287,0.992 23.851,0.992 12.052,0 23.388,-0.683 31.92,-1.923 13.845,-2.013 13.845,-4.562 13.845,-5.4 0,-0.838 0,-3.386 -13.845,-5.399 -8.532,-1.24 -19.869,-1.923 -31.92,-1.923 -7.081,0 -13.909,0.237 -20.074,0.684 l 8.926,-30.636 c 0.99,1.846 2.206,3.975 3.675,6.437 l 0.103,0.174 c 0.397,0.664 1.303,0.741 1.951,0.741 3.219,0 10.991,-2.354 13.677,-3.721 2.865,-1.459 2.469,-11.146 2.21,-12.586 -0.203,-1.134 -1.598,-4.494 -3.103,-7.502 3.683,-0.47 9.923,-2.422 12.271,-3.617 2.868,-1.459 2.469,-11.146 2.21,-12.586 -0.379,-2.123 -4.932,-12.035 -6.571,-12.865 -0.283,-0.143 -0.679,-0.207 -1.287,-0.207 -2.532,0 -9.6,1.312 -12.727,3.137 l 3.182,-10.924 -8.577,-0.18 -3.487,11.828 c -1.579,-0.953 -3.024,-1.625 -3.958,-1.705 -0.098,-0.008 -0.204,-0.012 -0.314,-0.012 -1.908,0 -4.758,1.391 -6.838,2.407 l -0.081,0.039 c -0.692,0.338 -1.29,0.627 -1.717,0.801 -1.803,0.728 -4.073,5.31 -7.591,15.322 l -0.07,0.199 c -0.927,2.637 10.224,9.223 12.307,10.115 0.071,0.032 0.153,0.047 0.229,0.071 l -13.611,46.155 c -0.909,0.113 -1.799,0.23 -2.654,0.354 -13.846,2.013 -13.846,4.561 -13.846,5.399 0,0.825 0.01,3.31 13.237,5.308 l -3.884,13.172 c -4.014,1.003 -6.983,2.155 -8.936,3.476 -0.797,-6.833 -1.2,-13.858 -1.2,-20.932 0,-27.463 6.224,-53.596 17.077,-71.698 0.025,-0.043 0.049,-0.086 0.071,-0.131 1.191,-2.5 2.789,-5.482 4.639,-8.935 7.207,-13.454 17.006,-31.739 14.681,-44.194 2.76,-1.111 12.942,-1.513 16.738,0.069 -2.806,11.666 6.973,27.543 14.883,40.388 2.9,4.705 5.637,9.153 7.293,12.664 0.021,0.047 0.047,0.094 0.074,0.139 10.879,18.148 17.118,44.287 17.118,71.715 0,7.218 -0.42,14.387 -1.249,21.354 -5.842,-4.141 -17.48,-5.989 -26.915,-6.814 -13.241,-1.157 -28.145,-0.811 -41.102,0.781 l -0.002,-0.012 c -0.184,0.023 -0.382,0.052 -0.59,0.082"
           style="fill:#fbb03b;fill-opacity:1;fill-rule:nonzero;stroke:none"
           id="path4791" /><path
           d="m 183.464,166.508 c 0.676,1.457 1.566,3.174 2.702,5.203 -1.675,0.17 -4.018,0.582 -6.245,1.166 0.108,-0.113 0.202,-0.215 0.269,-0.297 0.653,-0.777 2.035,-3.363 3.274,-6.072"
           style="fill:#fbb03b;fill-opacity:1;fill-rule:nonzero;stroke:none"
           id="path4793" /><path
           d="m 229.167,230.926 c 0,2.008 -15.179,5.753 -44.196,5.753 -9.212,0 -17.023,-0.378 -23.404,-0.957 l 2.864,-9.829 c 5.811,-0.442 12.661,-0.72 20.54,-0.72 29.017,0 44.196,3.745 44.196,5.753"
           style="fill:#fbb03b;fill-opacity:1;fill-rule:nonzero;stroke:none"
           id="path4795" /><path
           d="m 140.775,230.926 c 0,-1.139 4.9,-2.84 14.442,-4.096 l -2.319,7.865 c -8.013,-1.213 -12.123,-2.725 -12.123,-3.769"
           style="fill:#fbb03b;fill-opacity:1;fill-rule:nonzero;stroke:none"
           id="path4797" /><path
           d="m 209.203,265.455 c -0.742,-2.802 -1.08,-6.993 1.443,-11.178 7.184,1.929 19.311,4.422 20.702,4.706 0.226,0.275 0.549,0.781 0.455,1.078 -0.065,0.202 -0.371,0.306 -0.618,0.357 l -0.123,0.049 c -6.943,4.216 -17.277,10.466 -18.689,11.258 -0.533,-0.462 -2.258,-2.822 -3.17,-6.27"
           style="fill:#fbb03b;fill-opacity:1;fill-rule:nonzero;stroke:none"
           id="path4799" /><path
           d="m 231.034,256.098 c -0.1,0.025 -0.277,0.049 -0.573,0.049 -3.891,0 -17.5,-3.949 -18.795,-4.528 -0.039,-0.272 0.223,-1.11 0.602,-1.95 8.656,2.35 17.734,5.306 18.766,6.429"
           style="fill:#fbb03b;fill-opacity:1;fill-rule:nonzero;stroke:none"
           id="path4801" /><path
           d="m 183.158,93.123 c -21.89,0 -35.332,4.867 -35.332,8.356 0,2.851 8.982,6.623 24.214,7.906 -0.076,-0.934 -0.21,-1.836 -0.424,-2.692 -0.112,-0.445 -0.023,-0.916 0.242,-1.291 0.455,-0.64 1.505,-1.556 5.348,-2.115 1.748,-0.256 3.892,-0.404 6.09,-0.404 4.45,0 9.118,0.611 11.141,2.193 0.521,0.406 0.73,1.098 0.525,1.725 -0.271,0.824 -0.449,1.685 -0.561,2.574 15.158,-1.293 24.089,-5.053 24.089,-7.896 0,-3.489 -13.441,-8.356 -35.332,-8.356 m -22.948,58.063 c -1.851,3.453 -3.448,6.435 -4.64,8.935 -0.021,0.045 -0.044,0.088 -0.07,0.131 -10.853,18.102 -17.077,44.235 -17.077,71.698 0,7.074 0.403,14.099 1.2,20.932 1.954,-1.321 4.922,-2.473 8.936,-3.477 l 3.884,-13.171 c -13.227,-1.998 -13.237,-4.483 -13.237,-5.308 0,-0.838 0,-3.386 13.846,-5.399 0.854,-0.124 1.745,-0.241 2.654,-0.355 l 13.611,-46.154 c -0.076,-0.024 -0.158,-0.039 -0.229,-0.071 -2.083,-0.892 -13.234,-7.478 -12.307,-10.115 l 0.07,-0.199 c 3.516,-10.012 5.787,-14.594 7.591,-15.322 0.427,-0.174 1.025,-0.463 1.717,-0.801 l 0.079,-0.039 c 2.081,-1.016 4.932,-2.407 6.84,-2.407 0.109,0 0.216,0.004 0.315,0.012 0.933,0.08 2.378,0.752 3.956,1.705 l 3.488,-11.828 8.577,0.18 -3.183,10.924 c 3.128,-1.825 10.196,-3.137 12.728,-3.137 0.607,0 1.004,0.064 1.287,0.207 1.639,0.83 6.192,10.742 6.57,12.865 0.26,1.44 0.659,11.127 -2.209,12.586 -2.348,1.195 -8.588,3.147 -12.271,3.617 1.504,3.008 2.899,6.368 3.103,7.502 0.259,1.44 0.654,11.127 -2.21,12.586 -2.686,1.367 -10.458,3.721 -13.678,3.721 -0.647,0 -1.553,-0.077 -1.95,-0.741 l -0.103,-0.174 c -1.47,-2.462 -2.685,-4.591 -3.676,-6.437 l -8.924,30.636 c 6.163,-0.447 12.992,-0.684 20.073,-0.684 12.051,0 23.387,0.683 31.92,1.923 13.845,2.013 13.845,4.561 13.845,5.399 0,0.837 0,3.387 -13.845,5.4 -8.533,1.24 -19.869,1.923 -31.92,1.923 -8.564,0 -16.76,-0.347 -23.851,-0.992 l -3.104,10.654 c 1.163,-0.227 2.235,-0.421 3.112,-0.551 v -0.001 c 0.004,0 0.008,0 0.011,-0.001 0.208,-0.031 0.406,-0.059 0.591,-0.082 l 0.001,0.011 c 12.958,-1.591 27.861,-1.936 41.102,-0.78 9.435,0.825 21.073,2.673 26.914,6.814 0.83,-6.967 1.25,-14.136 1.25,-21.354 0,-27.428 -6.239,-53.567 -17.118,-71.715 -0.027,-0.045 -0.053,-0.092 -0.074,-0.139 -1.656,-3.511 -4.394,-7.959 -7.293,-12.664 -7.91,-12.845 -17.689,-28.722 -14.883,-40.388 -3.796,-1.582 -13.978,-1.18 -16.738,-0.069 2.325,12.455 -7.473,30.74 -14.681,44.194 m -15.248,110.416 2.793,-9.471 c -5.753,1.553 -9.022,3.395 -9.022,5.155 0,1.452 2.221,2.96 6.229,4.316 m -17.044,64.604 4.858,1.454 22.365,-76.77 c -1.814,0.396 -3.604,0.802 -5,1.112 -0.126,0.029 -0.243,0.055 -0.363,0.081 z m -70.623,16.301 69.503,-8.838 -0.889,-5.461 -67.373,8.903 z m 73.91,-9.453 -4.28,-4.98 -0.238,0.031 0.89,5.464 3.612,-0.459 z m -3.686,-5.492 3.948,4.593 1.09,-3.742 -4.86,-1.455 z M 155.217,226.83 c -9.542,1.256 -14.442,2.957 -14.442,4.096 0,1.044 4.11,2.556 12.123,3.769 z m 9.977,-72.506 c 0.114,0.739 3.472,2.994 5.693,4.487 1.546,1.039 2.736,1.861 3.642,2.537 l 2.486,-8.432 c -1.469,-0.926 -2.827,-1.518 -3.727,-1.594 -0.068,-0.008 -0.139,0.067 -0.21,0.067 h -0.001 c -1.635,0 -4.456,1.3 -6.324,2.213 l -0.08,0.002 c -0.649,0.314 -1.21,0.568 -1.657,0.757 z m 3.527,23.153 c 0.098,-0.102 0.209,-0.235 0.33,-0.397 0.428,-0.568 0.988,-1.484 1.597,-2.576 l 3.407,-11.551 c -1.204,-0.932 -2.925,-2.088 -4.043,-2.84 -2.533,-1.703 -4.21,-2.869 -5.208,-3.804 -0.399,-0.371 -0.687,-0.707 -0.879,-1.026 -1.407,1.852 -3.404,6.447 -5.967,13.74 l -0.068,0.19 c -0.169,1.236 7.047,6.351 10.831,8.264 m 17.337,5.341 c -0.766,-0.242 -4.362,0.805 -6.751,1.502 -1.144,0.334 -2.139,0.618 -3.014,0.854 l -1.836,6.305 c 1.014,1.974 2.427,4.519 4.387,7.807 l 0.051,0.083 c 0.078,0.025 0.266,0.066 0.656,0.066 2.786,0 9.551,-2.003 12.444,-3.302 -0.7,-2.903 -4.844,-12.287 -5.937,-13.315 m 3.011,-8.394 c -0.131,0.531 -0.304,1.152 -0.514,1.889 -0.482,1.695 -1.07,3.779 -1.216,5.601 1.516,1.893 4.739,9.234 5.896,12.897 0.874,-2.389 1.012,-7.875 0.66,-9.836 -0.326,-1.819 -3.207,-7.92 -4.826,-10.551 m 8.369,-15.311 c -0.765,-0.24 -4.363,0.805 -6.754,1.502 -3.68,1.074 -5.877,1.658 -7.18,1.608 0.282,1.306 1.354,3.978 4.424,9.412 0.415,0.021 0.716,0.084 0.94,0.197 0.614,0.311 1.636,1.897 2.696,3.869 3.07,-0.246 9.117,-2.064 11.809,-3.273 -0.7,-2.901 -4.843,-12.287 -5.935,-13.315 m 3.008,-8.394 c -0.13,0.531 -0.303,1.15 -0.512,1.886 -0.483,1.696 -1.072,3.782 -1.216,5.604 1.514,1.893 4.739,9.234 5.895,12.898 0.875,-2.386 1.012,-7.877 0.66,-9.837 -0.326,-1.819 -3.207,-7.92 -4.827,-10.551 m -16.823,9.951 c 1.157,0.031 4.396,-0.91 6.621,-1.561 3.495,-1.019 5.606,-1.586 6.887,-1.586 0.027,0 0.049,0.002 0.075,0.004 0.217,-1.822 0.764,-3.754 1.219,-5.351 0.275,-0.967 0.577,-2.028 0.676,-2.684 -0.047,0 -0.085,-0.004 -0.142,-0.004 -2.904,0 -10.943,1.721 -12.633,3.426 -1.039,1.049 -1.815,4.199 -2.327,6.285 -0.137,0.553 -0.26,1.047 -0.376,1.471 m -0.793,4.393 c -0.146,-0.352 -0.275,-0.688 -0.387,-1.002 l -1.399,4.8 c 0.592,-1.158 1.219,-2.5 1.786,-3.798 m 3.336,6.648 c -1.135,-2.029 -2.026,-3.746 -2.702,-5.203 -1.239,2.709 -2.621,5.295 -3.274,6.072 -0.068,0.082 -0.16,0.184 -0.27,0.297 2.228,-0.584 4.571,-0.996 6.246,-1.166 m -0.414,9.516 c 0.027,0 0.05,0.003 0.076,0.003 0.217,-1.82 0.764,-3.75 1.218,-5.347 0.276,-0.967 0.578,-2.029 0.676,-2.686 -0.047,-0.002 -0.084,-0.004 -0.14,-0.004 h -0.001 c -1.729,0 -5.279,0.61 -8.225,1.463 l -2.549,8.75 c 0.722,-0.201 1.432,-0.408 2.059,-0.592 3.494,-1.019 5.605,-1.587 6.886,-1.587 m -24.185,54.495 c 6.381,0.579 14.192,0.957 23.404,0.957 29.017,0 44.196,-3.745 44.196,-5.753 0,-2.008 -15.179,-5.753 -44.196,-5.753 -7.879,0 -14.729,0.278 -20.54,0.72 z m 25.294,-93.714 -4.592,-0.098 -31.73,107.592 c 1.634,-0.363 3.522,-0.78 5.344,-1.16 z m -2.233,124.222 c 7.495,0 14.341,-0.367 20.349,-0.98 -0.426,-3.172 -0.758,-9.609 2.123,-15.704 -6.493,-0.752 -14.087,-1.206 -22.472,-1.206 -8.417,0 -16.039,0.457 -22.546,1.214 -1.163,0.148 -2.911,0.483 -4.8,0.878 l -3.87,13.284 c 7.949,1.504 18.702,2.514 31.216,2.514 m 46.72,-7.247 c -1.391,-0.284 -13.518,-2.777 -20.702,-4.706 -2.523,4.184 -2.185,8.376 -1.443,11.178 0.911,3.448 2.637,5.808 3.17,6.27 1.412,-0.792 11.746,-7.042 18.689,-11.258 l 0.123,-0.049 c 0.247,-0.051 0.553,-0.155 0.618,-0.357 0.094,-0.297 -0.229,-0.803 -0.455,-1.078 m -0.314,-2.885 c -1.032,-1.122 -10.11,-4.079 -18.766,-6.429 -0.379,0.839 -0.641,1.678 -0.602,1.95 1.295,0.58 14.904,4.528 18.795,4.528 0.296,0 0.473,-0.024 0.573,-0.049 m 4.98,36.948 c 0.666,0 1.343,-0.027 2.011,-0.081 6.871,-0.546 13.223,-3.905 17.887,-9.46 5.508,-6.562 8.168,-15.594 7.295,-24.781 -1.584,-16.677 -14.348,-29.75 -29.1,-29.857 0.008,0.422 0.012,0.844 0.016,1.266 2.436,0.23 4.43,0.967 4.58,1.791 0.229,1.265 -4.062,20.719 -4.926,24.606 -0.066,0.302 -0.293,0.408 -0.466,0.408 -0.215,0 -0.419,-0.125 -0.78,-0.654 -0.021,0.162 -0.041,0.326 -0.062,0.488 -0.041,0.305 -0.172,0.58 -0.363,0.803 -0.008,0.01 -0.016,0.022 -0.026,0.032 -0.004,0.005 -0.009,0.009 -0.013,0.014 -0.032,0.263 -0.1,0.522 -0.204,0.777 0.151,0.167 0.95,1.107 0.688,1.932 -0.139,0.437 -0.521,0.763 -1.138,0.907 -2.126,1.29 -18.315,11.256 -18.876,11.491 l -0.096,0.239 h -0.079 c -0.731,0 -2.059,-2.573 -2.209,-2.843 -0.527,-0.957 -1.249,-2.532 -1.741,-4.43 -0.855,-3.299 -1.021,-7.711 1.721,-12.063 l 0.155,-0.255 0.28,0.074 c 6.149,1.669 16.237,3.797 19.783,4.533 0.11,-0.233 0.17,-0.392 0.17,-0.622 0,-0.108 -0.019,-0.252 -0.043,-0.252 h -0.004 -0.013 c -3.932,0 -18.732,-4.295 -19.332,-4.81 -0.355,-0.303 -0.314,-1.063 0.109,-2.168 0.123,-0.32 0.274,-0.69 0.461,-1.076 l 0.141,-0.303 0.313,0.08 c 2.933,0.791 16.982,4.658 19.354,6.68 0.133,0.113 0.237,0.22 0.292,0.321 0.087,0.156 0.101,0.293 0.09,0.402 0.011,-0.109 -0.003,-0.247 -0.09,-0.403 -0.055,-0.101 -0.159,-0.209 -0.292,-0.322 -2.372,-2.023 -16.421,-5.892 -19.354,-6.684 l -0.313,-0.085 -0.141,0.292 c -0.187,0.385 -0.338,0.733 -0.461,1.053 -0.672,-0.097 -1.354,-0.194 -2.055,-0.286 -0.372,0.728 -0.693,1.464 -0.967,2.204 -1.536,4.142 -1.64,8.35 -1.439,11.211 0.077,1.088 0.196,1.982 0.295,2.602 0.005,-0.001 0.01,-0.001 0.014,-0.002 2.614,15.467 14.885,27.231 28.928,27.231 m -3.324,-38.002 c 0.171,0.302 0.322,0.555 0.447,0.748 2.041,-9.219 4.918,-22.751 4.801,-23.706 -0.149,-0.295 -1.59,-0.942 -3.809,-1.165 0.002,0.349 0.007,0.697 0.007,1.046 0,7.81 -0.49,15.562 -1.446,23.077 M 194.291,112.355 c 0.446,9.983 8.336,22.801 14.893,33.448 2.927,4.752 5.694,9.244 7.425,12.902 10.641,17.783 16.778,41.88 17.461,68.305 15.778,0.083 29.43,13.892 31.112,31.59 0.922,9.712 -1.903,19.216 -7.752,26.182 -5.006,5.965 -11.842,9.576 -19.248,10.165 -0.719,0.056 -1.45,0.089 -2.168,0.089 -14.673,0 -27.526,-11.926 -30.682,-27.792 l -0.006,10e-4 c -0.012,-0.045 -0.047,-0.203 -0.097,-0.452 -6.521,0.664 -13.624,1.006 -20.601,1.006 -11.209,0 -22.759,-0.874 -31.659,-2.561 l -20.284,69.624 -77.887,9.905 2.159,-9.391 68.935,-9.109 18.628,-63.166 c -4.57,-1.567 -7.356,-3.513 -7.356,-5.815 0,-0.017 0.002,-0.034 0.003,-0.05 -0.12,-0.188 -0.205,-0.399 -0.236,-0.629 -1.092,-8.002 -1.647,-16.297 -1.647,-24.657 0,-28.394 6.21,-54.403 17.487,-73.247 1.218,-2.551 2.82,-5.541 4.673,-9 6.071,-11.33 14.037,-26.201 14.632,-37.344 -14.772,-1.216 -27.224,-4.902 -27.224,-10.88 0,-7.438 19.271,-11.329 38.306,-11.329 19.035,0 38.307,3.891 38.307,11.329 0,5.972 -12.425,9.654 -27.174,10.876 m 20.908,166.839 c 2.416,4.463 9.528,8.861 11.188,9.073 0.406,-2.458 4.16,-21.438 5.043,-25.892 -2.099,1.352 -8.31,5.471 -16.457,11.927 -0.866,1.37 -0.79,3.016 0.226,4.892 m -0.765,-5.467 c 10.118,-8.019 17.281,-12.465 17.351,-12.509 l 0.766,-0.473 -0.174,0.883 c -0.051,0.254 -5.042,25.434 -5.24,26.931 -0.033,0.243 -0.225,0.503 -0.667,0.503 -1.805,0 -9.376,-4.722 -11.96,-9.495 -1.178,-2.172 -1.231,-4.106 -0.161,-5.747 z m 38.365,-31.826 c -1.043,-2.437 -4.84,-7.18 -12.492,-9.618 -0.934,2.857 -2.524,10.283 -3.69,15.738 -1.111,5.194 -1.515,7.031 -1.678,7.24 -0.187,0.239 -0.265,1.341 -0.021,1.843 0.092,0.185 0.176,0.185 0.203,0.185 0.078,0 0.188,-0.053 0.307,-0.152 0.39,-0.317 1.646,-1.278 3.385,-2.608 4.5,-3.442 13.863,-10.604 14.246,-11.372 0.054,-0.112 0.062,-0.501 -0.26,-1.256 m -13.738,12.951 c -1.67,1.278 -2.991,2.288 -3.375,2.602 -0.2,0.161 -0.389,0.243 -0.565,0.243 -0.166,0 -0.402,-0.072 -0.568,-0.413 -0.305,-0.624 -0.221,-1.908 0.056,-2.262 0.153,-0.278 0.86,-3.585 1.61,-7.086 1.261,-5.9 2.834,-13.245 3.763,-15.973 l 0.065,-0.188 0.189,0.058 c 7.922,2.464 11.86,7.387 12.938,9.908 0.221,0.514 0.441,1.21 0.25,1.596 -0.393,0.788 -7.311,6.121 -14.363,11.515 m -8.399,34.164 c 1.318,0.63 3.072,0.962 5.082,0.962 4.699,0 9.776,-1.731 12.172,-4.135 -0.643,-1.991 -11.092,-19.412 -12.586,-21.263 l -0.416,-0.518 c -0.35,-0.437 -0.68,-0.853 -0.844,-0.982 -0.027,0.03 -0.066,0.078 -0.119,0.153 -0.59,1.197 -4.527,23.372 -3.289,25.783 m 3.391,-26.752 h 0.001 c 0.428,0 0.714,0.357 1.473,1.308 l 0.412,0.514 c 0.768,0.951 4.27,6.627 7.073,11.342 6.113,10.282 5.861,10.548 5.595,10.829 -2.476,2.611 -7.886,4.505 -12.863,4.505 -2.181,0 -4.095,-0.378 -5.532,-1.093 l -0.089,-0.044 -0.058,-0.082 c -1.614,-2.299 2.429,-25.575 3.228,-26.734 0.182,-0.264 0.405,-0.545 0.76,-0.545 m 26.965,1.052 0.031,-0.155 c 1.269,-6.096 -3.459,-15.696 -3.66,-16.101 -0.571,-1.145 -1.631,-1.946 -2.58,-1.946 -0.362,0 -0.704,0.115 -1.014,0.343 -1.656,1.207 -15.096,11.597 -15.869,12.302 -0.391,0.358 -1.045,0.956 -1.053,1.362 0,0.071 0.016,0.183 0.156,0.322 0.793,0.555 12.602,3.253 18.276,4.55 1.881,0.43 3.443,0.788 4.381,1.01 0.062,0.003 0.123,0.005 0.179,0.005 0.752,0 0.846,-0.213 1.153,-1.692 m -1.416,2.468 -0.067,-0.01 c -0.93,-0.222 -2.504,-0.582 -4.406,-1.017 -11.926,-2.725 -18.082,-4.206 -18.629,-4.737 -0.277,-0.27 -0.416,-0.577 -0.41,-0.912 0.01,-0.687 0.625,-1.304 1.308,-1.928 0.93,-0.85 14.6,-11.385 15.934,-12.357 0.447,-0.327 0.945,-0.493 1.477,-0.493 1.254,0 2.574,0.957 3.283,2.38 0.207,0.416 5.051,10.251 3.726,16.611 l -0.033,0.154 c -0.305,1.477 -0.48,2.42 -2.183,2.309 M 249.92,282.5 c 0.289,0.223 0.703,0.336 1.234,0.336 1.075,0 2.244,-0.467 2.256,-0.467 2.865,-1.922 6.979,-11.242 6.596,-13.088 -0.395,-1.896 -3.11,-2.78 -4.029,-2.94 -0.508,-0.088 -3.938,-0.906 -7.909,-1.854 -4.552,-1.087 -10.125,-2.416 -11.394,-2.662 0.902,2.249 12.109,19.79 13.246,20.675 m -13.619,-20.692 h 0.117 0.029 0.018 c 0.199,0 1.207,0.118 2.822,0.465 2.084,0.447 5.182,1.115 8.875,1.996 3.801,0.907 7.389,1.607 7.885,1.693 1.476,0.257 3.965,1.365 4.357,3.253 0.418,2.013 -3.765,11.502 -6.804,13.534 -0.051,0.02 -1.274,0.534 -2.446,0.534 -0.623,0 -1.123,-0.11 -1.484,-0.391 -0.992,-0.771 -13.803,-20.1 -13.447,-21.139 z M 231.312,119.65 c 8.6,4.08 17.524,8.848 24.704,12.682 5.644,3.016 10.601,5.662 12.16,6.188 -7.602,-12.573 -21.967,-36.063 -23.287,-37.217 -0.057,-0.049 -0.243,-0.164 -0.741,-0.164 -1.814,0 -5.746,1.545 -8.81,4.984 -2.237,2.512 -4.74,6.889 -4.026,13.527 m 12.836,-19.158 c 0.528,0 0.92,0.11 1.166,0.326 1.739,1.522 22.729,36.235 23.622,37.713 0.119,0.194 0.136,0.367 0.052,0.516 -0.045,0.08 -0.158,0.213 -0.412,0.213 -0.92,0 -4.826,-2.065 -12.863,-6.358 -7.219,-3.857 -16.203,-8.656 -24.84,-12.744 l -0.162,-0.078 -0.021,-0.178 c -0.805,-6.974 1.821,-11.576 4.165,-14.209 3.377,-3.789 7.493,-5.201 9.293,-5.201 m -14.752,24.612 c -1.092,5.005 4.743,20.705 8.282,25.433 0.851,1.137 1.306,1.285 1.463,1.297 0.025,0.002 0.052,0.002 0.084,0.002 3.101,0 25.609,-8.541 28.841,-10.406 -3.691,-2.125 -29.933,-17.075 -37.128,-17.073 -1.379,0 -1.502,0.561 -1.542,0.747 m 1.543,-1.321 c 7.881,0 36.663,16.662 37.883,17.373 l 0.34,0.199 -0.26,0.274 c -1.101,1.248 -26.05,10.857 -29.677,10.857 -0.047,0 -0.09,-0.011 -0.129,-0.013 -0.549,-0.039 -1.182,-0.559 -1.934,-1.565 -3.599,-4.808 -9.517,-20.769 -8.397,-25.906 0.125,-0.572 0.603,-1.219 2.173,-1.219 z m 34.323,54.465 c 0.535,-2.238 4.422,-23.49 5.931,-31.801 l 0.014,-0.07 0.041,-0.059 c 0.316,-0.445 0.406,-0.838 0.273,-1.199 -0.294,-0.797 -1.628,-1.322 -2.24,-1.496 -1.474,0.672 -17.867,8.113 -28.01,11.83 5.444,14.033 21.885,22.401 23.991,22.795 m 3.855,-35.26 0.104,-0.047 0.109,0.028 c 0.094,0.023 2.301,0.586 2.797,1.926 0.203,0.55 0.098,1.134 -0.311,1.738 -0.638,3.512 -5.675,31.215 -6,32.023 -0.031,0.074 -0.132,0.252 -0.431,0.252 -2.071,0 -19.475,-9.219 -24.834,-23.533 l -0.113,-0.305 0.306,-0.111 c 10.514,-3.824 28.197,-11.891 28.373,-11.971 m 23.498,46.311 c 4.264,0 6.321,-0.6 6.465,-0.893 -1.473,-2.101 -22.33,-35.234 -25.738,-40.652 -0.563,3.027 -2.537,14.449 -3.764,31.322 2.043,8.069 15.434,10.223 23.037,10.223 m -19.754,-42.477 0.16,-0.789 0.43,0.682 c 0.246,0.39 24.596,39.094 26.158,41.32 0.141,0.201 0.161,0.434 0.053,0.641 -0.629,1.207 -5.98,1.269 -7.047,1.269 -9.697,0 -21.717,-2.82 -23.676,-10.763 l -0.013,-0.051 0.004,-0.051 c 1.435,-19.801 3.906,-32.135 3.931,-32.258 m 1.303,-43.431 c -0.447,-1.248 -7.287,-5.18 -16.711,-5.18 -3.336,0 -6.648,0.49 -9.849,1.459 2.384,4.734 9.427,16.23 14.601,24.678 4.822,7.871 6.65,10.882 6.719,11.297 0.107,0.644 1.851,2.728 2.566,2.728 0.129,0 0.17,-0.236 0.182,-0.435 0.047,-0.776 0.266,-3.186 0.568,-6.522 0.787,-8.645 2.424,-26.631 1.924,-28.025 m -1.848,34.586 c -0.054,0.941 -0.595,1.043 -0.826,1.043 -1.121,0 -3.06,-2.416 -3.199,-3.254 -0.146,-0.487 -3.299,-5.633 -6.635,-11.08 -5.31,-8.668 -12.584,-20.54 -14.801,-25.071 l -0.164,-0.336 0.358,-0.113 c 3.375,-1.062 6.877,-1.602 10.404,-1.602 9.526,0 16.705,3.897 17.32,5.61 0.504,1.41 -0.658,14.754 -1.888,28.301 -0.293,3.205 -0.524,5.736 -0.569,6.502 m 4.672,9.355 c 0.205,0.727 6.305,10.225 13.151,19.982 8.273,11.793 14.002,18.959 15.767,19.772 7.889,-1.037 13.883,-14.629 13.373,-22.408 -1.64,-1.551 -35.412,-15.785 -38.992,-16.924 l -1.057,-0.379 c -1.144,-0.371 -1.902,-0.615 -2.244,-0.615 -0.029,0 -0.048,-0.071 -0.06,-0.071 h -0.008 c -0.012,0.588 -0.016,0.258 0.07,0.643 m -0.574,-0.914 c 0.125,-0.156 0.318,-0.236 0.572,-0.236 0.444,0 1.155,0.23 2.444,0.648 l 1.054,0.34 c 1.809,0.576 11.592,4.59 20.936,8.59 18.432,7.89 18.473,8.48 18.496,8.799 0.592,8.216 -5.584,22.156 -14.016,23.17 l -0.08,0.009 -0.074,-0.029 c -4.117,-1.584 -28.932,-38.119 -29.387,-40.162 -0.117,-0.526 -0.146,-0.879 0.055,-1.129 m 30.359,-22.684 -0.146,-0.236 c -5.912,-9.557 -22.465,-18.549 -23.168,-18.928 -1.141,-0.613 -2.4,-0.965 -3.459,-0.965 -0.895,0 -2.428,0.262 -2.629,2.01 -0.379,3.27 -2.58,28.998 -2.58,30.729 0,2.115 0.234,3.31 1.488,3.556 1.692,0 16.955,-6.421 25.157,-9.873 2.535,-1.066 4.636,-1.951 5.904,-2.466 1.217,-0.842 0.906,-1.45 -0.567,-3.827 m 0.903,4.377 -0.061,0.034 c -1.261,0.513 -3.377,1.404 -5.929,2.478 -11.934,5.022 -23.725,9.924 -25.407,9.924 -0.058,0 -0.109,-0.006 -0.152,-0.014 -1.981,-0.396 -1.981,-2.588 -1.981,-4.189 0,-1.967 2.295,-28.305 2.583,-30.803 0.191,-1.641 1.382,-2.582 3.271,-2.582 1.18,0 2.516,0.371 3.766,1.045 0.707,0.381 17.408,9.453 23.41,19.154 l 0.146,0.237 c 1.393,2.248 2.16,3.486 0.354,4.716 m 4.773,4.713 c -1.051,-0.881 -2.398,-1.326 -4.008,-1.326 -1.587,0 -3.048,0.447 -3.816,0.832 -0.654,0.328 -5.314,2.223 -10.713,4.42 -6.139,2.498 -13.639,5.551 -15.371,6.357 3.414,2.233 36.33,16.358 38.77,16.581 1.99,0.181 3.377,-2.856 3.531,-3.209 0.783,-5.188 -5.793,-21.471 -8.393,-23.655 m 4.803,27.506 c -1.291,-0.117 -11.533,-4.31 -20.502,-8.156 -12.484,-5.354 -18.896,-8.393 -19.061,-9.037 l -0.039,-0.266 0.19,-0.127 c 0.539,-0.359 6.902,-2.959 15.83,-6.592 5.16,-2.099 10.035,-4.084 10.666,-4.398 0.832,-0.416 2.406,-0.902 4.105,-0.902 1.741,0 3.272,0.511 4.422,1.478 2.815,2.365 9.469,18.918 8.61,24.289 l -0.02,0.07 c -0.064,0.155 -1.629,3.887 -4.201,3.641 m 22.141,-38.367 c -4.108,-30.609 -4.475,-31.633 -5.989,-32.557 -0.386,-0.238 -0.869,-0.533 -1.451,-1.041 -1.678,-1.469 -7.197,-2.295 -11.633,-2.959 -3.652,-0.549 -7.099,-1.064 -9.224,-1.933 -5.655,-2.311 -39.727,-9.194 -61.578,1.882 -7.168,3.635 -11.918,8.368 -15.053,12.774 5.889,-4.826 13.578,-7.363 22.435,-7.363 16.172,0 34.356,8.504 48.639,22.744 18.234,18.179 26.106,41.556 21.57,58.972 0.903,-1.326 1.811,-2.748 2.705,-4.263 5.866,-9.948 12.29,-26.047 9.579,-46.256 m -91.356,49.217 c 13.709,13.67 31.063,21.832 46.424,21.832 9.166,0 16.926,-2.924 22.439,-8.453 15.245,-15.289 9.153,-46.164 -13.576,-68.827 C 289.615,102.063 272.26,93.904 256.9,93.904 c -9.166,0 -16.925,2.922 -22.441,8.451 -15.241,15.29 -9.151,46.165 13.578,68.825 m 84.418,-1.262 c -6.662,11.256 -13.91,17.445 -14.215,17.703 l -0.004,-0.004 c -6.041,5.582 -14.228,8.531 -23.775,8.531 -16.174,0 -34.357,-8.502 -48.641,-22.746 -19.669,-19.611 -27.283,-45.271 -20.266,-62.968 0.172,-1.09 3.135,-18.038 22.546,-27.877 9.72,-4.928 21.291,-6.493 31.933,-6.493 15.983,0.002 29.871,3.532 32.25,4.504 1.776,0.727 5.196,1.239 8.502,1.735 5.588,0.836 10.865,1.627 13.235,3.701 0.38,0.332 0.693,0.523 1.023,0.725 2.865,1.753 3.037,1.859 7.459,34.816 2.838,21.152 -3.897,37.98 -10.047,48.373 M 131.183,112.559 c -2.086,-2.34 -4.762,-3.393 -5.996,-3.393 h -10e-4 c -0.339,0 -0.466,0.078 -0.505,0.113 -0.897,0.785 -10.665,16.754 -15.855,25.338 1.06,-0.355 4.438,-2.16 8.287,-4.217 4.887,-2.609 10.96,-5.853 16.813,-8.629 0.486,-4.521 -1.218,-7.503 -2.743,-9.212 m 3.151,9.504 -0.109,0.052 c -5.877,2.783 -11.992,6.049 -16.905,8.674 -5.478,2.926 -8.138,4.332 -8.767,4.332 -0.173,0 -0.25,-0.092 -0.281,-0.144 -0.057,-0.102 -0.045,-0.219 0.036,-0.352 0.608,-1.006 14.9,-24.641 16.084,-25.676 0.168,-0.148 0.435,-0.222 0.794,-0.222 h 10e-4 c 1.226,0 4.025,0.961 6.324,3.539 1.597,1.793 3.386,4.925 2.838,9.675 z m -5.796,21.623 0.057,-0.002 c 0.106,-0.008 0.417,-0.11 0.994,-0.881 2.41,-3.221 6.384,-13.91 5.641,-17.321 -0.027,-0.125 -0.111,-0.507 -1.05,-0.507 -4.898,0 -22.764,10.177 -25.28,11.625 2.202,1.269 17.526,7.086 19.638,7.086 m -20.385,-7.163 0.232,-0.134 c 0.831,-0.485 20.43,-11.854 25.795,-11.854 1.069,0 1.394,0.465 1.48,0.854 0.762,3.498 -3.269,14.404 -5.718,17.675 -0.513,0.686 -0.943,1.032 -1.317,1.057 -0.026,0.002 -0.055,0.004 -0.087,0.004 -2.468,0 -19.455,-6.551 -20.206,-7.4 z m -0.079,1.569 c -0.417,0.117 -1.325,0.474 -1.527,1.019 -0.09,0.246 -0.029,0.514 0.188,0.817 l 0.036,0.082 c 1.205,5.695 4.311,20.287 4.685,21.697 1.571,-0.09 12.798,-4.883 15.709,-15.553 -6.904,-2.527 -18.087,-7.603 -19.091,-8.062 m 3.341,24.054 c -0.22,0 -0.306,-0.097 -0.338,-0.179 -0.222,-0.549 -4.223,-19.444 -4.727,-21.822 -0.281,-0.413 -0.353,-0.811 -0.215,-1.186 0.338,-0.914 1.841,-1.297 1.905,-1.313 l 0.074,-0.017 0.071,0.031 c 0.121,0.055 12.16,5.547 19.319,8.151 l 0.188,0.068 -0.05,0.193 c -2.94,11.239 -14.581,16.074 -16.227,16.074 m -19.228,7.045 c 5.177,0 14.293,-1.466 15.684,-6.961 -0.834,-11.488 -2.18,-19.263 -2.561,-21.326 -2.322,3.69 -16.522,26.246 -17.532,27.659 0.105,0.22 1.505,0.628 4.409,0.628 m 13.048,-28.994 0.292,-0.465 0.109,0.539 c 0.017,0.083 1.698,8.481 2.676,21.963 l 0.002,0.036 -0.007,0.033 c -1.335,5.41 -9.517,7.328 -16.12,7.328 -0.727,0 -4.371,-0.041 -4.798,-0.865 -0.074,-0.141 -0.06,-0.299 0.035,-0.436 1.064,-1.516 17.643,-27.865 17.811,-28.133 m 10.891,-33.023 c -6.415,0 -11.073,2.676 -11.377,3.525 -0.341,0.949 0.774,13.205 1.31,19.094 0.207,2.266 0.355,3.9 0.386,4.43 0.008,0.134 0.036,0.297 0.125,0.297 0.486,0 1.673,-1.42 1.747,-1.86 0.046,-0.281 1.292,-2.334 4.579,-7.697 3.522,-5.75 8.314,-13.574 9.937,-16.797 -2.18,-0.658 -4.435,-0.992 -6.707,-0.992 m -2.856,18.017 c -2.274,3.713 -4.422,7.221 -4.52,7.541 -0.097,0.582 -1.418,2.227 -2.18,2.227 -0.157,0 -0.526,-0.07 -0.563,-0.711 -0.031,-0.521 -0.187,-2.24 -0.386,-4.416 -0.839,-9.228 -1.63,-18.32 -1.287,-19.281 0.418,-1.166 5.308,-3.817 11.792,-3.817 h 10e-4 c 2.402,0 4.786,0.366 7.084,1.09 l 0.244,0.076 -0.113,0.229 c -1.509,3.084 -6.458,11.164 -10.072,17.062 m -30.134,42.487 c 2.835,-1.297 19.271,-25.514 19.689,-27.01 0.068,-0.303 0.054,-0.383 0.063,-0.387 0,0 -0.015,-0.006 -0.061,-0.006 -0.232,0 -0.749,0.166 -1.532,0.42 l -0.715,0.231 c -2.436,0.775 -25.431,10.451 -26.547,11.508 -0.349,5.296 3.734,14.537 9.103,15.244 m 17.311,-27.17 0.714,-0.231 c 0.88,-0.285 1.364,-0.441 1.666,-0.441 0.174,0 0.305,0.053 0.39,0.16 0.137,0.17 0.117,0.41 0.037,0.768 -0.307,1.392 -17.201,26.265 -20.008,27.345 l -0.051,0.02 -0.054,-0.008 c -5.741,-0.687 -9.946,-10.178 -9.543,-15.773 0.079,-1.104 26.583,-11.756 26.849,-11.84 m 2.118,-28.293 c -0.137,-1.192 -1.18,-1.369 -1.789,-1.369 -0.721,0 -1.58,0.24 -2.356,0.658 -0.478,0.258 -11.747,6.377 -15.774,12.887 l -0.1,0.162 c -1.01,1.629 -1.216,2.037 -0.406,2.593 0.86,0.35 2.302,0.958 4.044,1.69 5.582,2.35 15.971,6.721 17.142,6.721 h 0.001 c 0.836,-0.166 0.994,-0.981 0.994,-2.422 0,-1.266 -1.569,-19.307 -1.756,-20.92 m 0.848,23.773 c -0.029,0.006 -0.064,0.01 -0.105,0.01 -1.144,0 -9.171,-3.338 -17.295,-6.756 -1.74,-0.732 -3.18,-1.338 -4.08,-1.711 -1.231,-0.838 -0.709,-1.681 0.24,-3.211 l 0.099,-0.162 c 4.089,-6.607 15.457,-12.781 15.939,-13.041 0.851,-0.459 1.762,-0.711 2.565,-0.711 1.286,0 2.097,0.641 2.225,1.758 0.197,1.699 1.76,19.627 1.76,20.971 0,1.092 0,2.584 -1.348,2.853 m -30.455,10.834 c 0.009,0.022 0.929,2.213 2.296,2.213 0.039,0 0.078,-0.002 0.118,-0.004 1.659,-0.15 24.072,-9.767 26.397,-11.289 -1.181,-0.551 -6.303,-2.635 -10.495,-4.342 -3.659,-1.488 -6.82,-2.773 -7.264,-2.996 -0.524,-0.261 -1.518,-0.568 -2.599,-0.568 -1.097,0 -2.015,0.305 -2.729,0.904 -1.774,1.492 -6.27,12.629 -5.724,16.082 m 8.454,-17.424 c 1.157,0 2.228,0.329 2.794,0.612 0.429,0.215 3.734,1.56 7.234,2.984 6.095,2.481 10.437,4.256 10.805,4.5 l 0.142,0.117 -0.039,0.151 c -0.111,0.437 -4.477,2.508 -12.977,6.154 -6.107,2.617 -13.081,5.473 -13.959,5.551 -1.744,0.168 -2.817,-2.371 -2.874,-2.528 -0.585,-3.654 3.945,-14.925 5.861,-16.535 0.785,-0.658 1.827,-1.006 3.012,-1.006 z m 50.369,-19.404 c -3.754,-3.764 -9.036,-5.754 -15.278,-5.754 -10.458,0 -22.274,5.557 -31.608,14.862 -7.548,7.527 -12.645,16.587 -14.351,25.515 -1.678,8.779 0.135,16.36 5.107,21.346 3.754,3.766 9.037,5.756 15.279,5.756 10.458,0 22.274,-5.557 31.608,-14.864 15.475,-15.429 19.622,-36.451 9.243,-46.861 M 121.529,98.422 C 106.65,90.879 83.453,95.564 79.604,97.139 c -1.447,0.591 -3.795,0.943 -6.281,1.316 -3.02,0.453 -6.779,1.016 -7.921,2.016 -0.396,0.345 -0.724,0.547 -0.988,0.707 -1.029,0.631 -1.28,1.328 -4.076,22.166 -2.007,14.963 3.283,26.758 8.27,34.195 -1.011,-3.99 -1.086,-8.494 -0.164,-13.322 1.787,-9.346 7.094,-18.801 14.942,-26.627 9.726,-9.697 22.106,-15.486 33.117,-15.486 6.029,0 11.263,1.726 15.274,5.011 -2.135,-3 -5.369,-6.22 -10.248,-8.693 M 90.93,173.855 c -6.499,0 -12.074,-2.007 -16.187,-5.808 l -0.004,0.002 c -0.202,-0.172 -20.216,-17.436 -16.519,-44.99 3.012,-22.438 3.128,-22.508 5.079,-23.704 0.225,-0.136 0.437,-0.267 0.696,-0.494 1.613,-1.412 5.207,-1.949 9.012,-2.519 2.251,-0.338 4.579,-0.686 5.788,-1.182 1.62,-0.662 11.075,-3.066 21.958,-3.066 7.246,0.002 15.124,1.066 21.743,4.422 13.205,6.693 15.229,18.22 15.349,18.978 4.778,12.049 -0.406,29.522 -13.799,42.873 -9.725,9.699 -22.104,15.488 -33.116,15.488"
           style="fill:#000000;fill-opacity:1;fill-rule:nonzero;stroke:none"
           id="path4803" /><g
           id="g4805"><g
             id="g4807" /><g
             id="g4825"><g
               clip-path="url(#clipPath4811)"
               opacity="0.5"
               id="g4823"><g
                 id="g4821"><g
                   clip-path="url(#clipPath4815)"
                   id="g4819"><path
                     d="m 230.342,231.967 c 0,-27.313 -6.205,-53.33 -17.027,-71.377 l -0.055,-0.096 -0.048,-0.101 c -2.122,-4.504 -5.933,-8.647 -9.617,-12.655 -6.598,-7.175 -14.976,-30.269 -12.758,-40.232 -1.548,-0.465 -4.206,-0.83 -7.551,-0.83 -3.661,0 -6.309,0.416 -7.644,0.789 1.567,9.883 -3.685,33.236 -10.291,40.664 -3.698,4.156 -7.19,8.08 -9.189,12.273 l -0.045,0.096 -0.055,0.092 c -10.794,18.004 -16.984,44.014 -16.984,71.36 -4.316,-6.712 89.173,-13.38 91.264,0.017"
                     style="fill:#eaea86;fill-opacity:1;fill-rule:nonzero;stroke:none"
                     id="path4817" /></g></g></g></g></g></g></g></g></svg>
